<mxfile host="app.diagrams.net" modified="2023-02-22T11:17:02.411Z" agent="5.0 (Windows NT 10.0; Win64; x64) AppleWebKit/537.36 (KHTML, like Gecko) Chrome/110.0.0.0 Safari/537.36" etag="c_ymz6LppprH89aurFLB" version="20.8.22" type="github">
  <diagram id="prtHgNgQTEPvFCAcTncT" name="Page-1">
    <mxGraphModel dx="820" dy="759" grid="1" gridSize="10" guides="1" tooltips="1" connect="1" arrows="1" fold="1" page="1" pageScale="1" pageWidth="827" pageHeight="1169" math="0" shadow="0">
      <root>
        <mxCell id="0" />
        <mxCell id="1" parent="0" />
        <mxCell id="W0vwcR1TM-mznyV8Gwxy-1" value="" style="shape=mxgraph.sysml.actFinal;html=1;verticalLabelPosition=bottom;labelBackgroundColor=#ffffff;verticalAlign=top;" vertex="1" parent="1">
          <mxGeometry x="600" y="680" width="40" height="40" as="geometry" />
        </mxCell>
        <mxCell id="W0vwcR1TM-mznyV8Gwxy-5" style="edgeStyle=orthogonalEdgeStyle;rounded=0;orthogonalLoop=1;jettySize=auto;html=1;" edge="1" parent="1" source="W0vwcR1TM-mznyV8Gwxy-2" target="W0vwcR1TM-mznyV8Gwxy-3">
          <mxGeometry relative="1" as="geometry" />
        </mxCell>
        <mxCell id="W0vwcR1TM-mznyV8Gwxy-2" value="" style="shape=ellipse;html=1;fillColor=strokeColor;fontSize=18;fontColor=#ffffff;" vertex="1" parent="1">
          <mxGeometry x="90" y="40" width="40" height="40" as="geometry" />
        </mxCell>
        <mxCell id="W0vwcR1TM-mznyV8Gwxy-6" style="edgeStyle=orthogonalEdgeStyle;rounded=0;orthogonalLoop=1;jettySize=auto;html=1;" edge="1" parent="1" source="W0vwcR1TM-mznyV8Gwxy-3" target="W0vwcR1TM-mznyV8Gwxy-4">
          <mxGeometry relative="1" as="geometry" />
        </mxCell>
        <mxCell id="W0vwcR1TM-mznyV8Gwxy-3" value="Lấy data cần xử lý ở bảng&amp;nbsp;SmsCardFee. Theo ngày job chạy" style="rounded=1;whiteSpace=wrap;html=1;" vertex="1" parent="1">
          <mxGeometry x="200" y="30" width="200" height="60" as="geometry" />
        </mxCell>
        <object label="" id="W0vwcR1TM-mznyV8Gwxy-7">
          <mxCell style="edgeStyle=orthogonalEdgeStyle;rounded=0;orthogonalLoop=1;jettySize=auto;html=1;" edge="1" parent="1" source="W0vwcR1TM-mznyV8Gwxy-4" target="W0vwcR1TM-mznyV8Gwxy-1">
            <mxGeometry relative="1" as="geometry" />
          </mxCell>
        </object>
        <mxCell id="W0vwcR1TM-mznyV8Gwxy-8" value="Không có data" style="edgeLabel;html=1;align=center;verticalAlign=middle;resizable=0;points=[];" vertex="1" connectable="0" parent="W0vwcR1TM-mznyV8Gwxy-7">
          <mxGeometry x="-0.0806" y="-4" relative="1" as="geometry">
            <mxPoint as="offset" />
          </mxGeometry>
        </mxCell>
        <mxCell id="W0vwcR1TM-mznyV8Gwxy-10" style="edgeStyle=orthogonalEdgeStyle;rounded=0;orthogonalLoop=1;jettySize=auto;html=1;" edge="1" parent="1" source="W0vwcR1TM-mznyV8Gwxy-4" target="W0vwcR1TM-mznyV8Gwxy-9">
          <mxGeometry relative="1" as="geometry">
            <Array as="points">
              <mxPoint x="500" y="240" />
            </Array>
          </mxGeometry>
        </mxCell>
        <mxCell id="W0vwcR1TM-mznyV8Gwxy-11" value="Có data" style="edgeLabel;html=1;align=center;verticalAlign=middle;resizable=0;points=[];" vertex="1" connectable="0" parent="W0vwcR1TM-mznyV8Gwxy-10">
          <mxGeometry x="-0.4" relative="1" as="geometry">
            <mxPoint as="offset" />
          </mxGeometry>
        </mxCell>
        <mxCell id="W0vwcR1TM-mznyV8Gwxy-4" value="Kiểm tra xem có data không?" style="rhombus;whiteSpace=wrap;html=1;" vertex="1" parent="1">
          <mxGeometry x="430" y="30" width="140" height="60" as="geometry" />
        </mxCell>
        <mxCell id="W0vwcR1TM-mznyV8Gwxy-13" style="edgeStyle=orthogonalEdgeStyle;rounded=0;orthogonalLoop=1;jettySize=auto;html=1;" edge="1" parent="1" source="W0vwcR1TM-mznyV8Gwxy-9" target="W0vwcR1TM-mznyV8Gwxy-12">
          <mxGeometry relative="1" as="geometry" />
        </mxCell>
        <mxCell id="W0vwcR1TM-mznyV8Gwxy-9" value="Lấy tham số config mức phí + promotion code" style="rounded=1;whiteSpace=wrap;html=1;" vertex="1" parent="1">
          <mxGeometry x="200" y="190" width="200" height="60" as="geometry" />
        </mxCell>
        <mxCell id="W0vwcR1TM-mznyV8Gwxy-14" style="edgeStyle=orthogonalEdgeStyle;rounded=0;orthogonalLoop=1;jettySize=auto;html=1;entryX=0.25;entryY=0;entryDx=0;entryDy=0;entryPerimeter=0;" edge="1" parent="1" source="W0vwcR1TM-mznyV8Gwxy-12" target="W0vwcR1TM-mznyV8Gwxy-1">
          <mxGeometry relative="1" as="geometry">
            <Array as="points">
              <mxPoint x="500" y="390" />
              <mxPoint x="500" y="680" />
            </Array>
          </mxGeometry>
        </mxCell>
        <mxCell id="W0vwcR1TM-mznyV8Gwxy-15" value="Không tồn tại" style="edgeLabel;html=1;align=center;verticalAlign=middle;resizable=0;points=[];" vertex="1" connectable="0" parent="W0vwcR1TM-mznyV8Gwxy-14">
          <mxGeometry x="-0.0147" y="3" relative="1" as="geometry">
            <mxPoint as="offset" />
          </mxGeometry>
        </mxCell>
        <mxCell id="W0vwcR1TM-mznyV8Gwxy-17" style="edgeStyle=orthogonalEdgeStyle;rounded=0;orthogonalLoop=1;jettySize=auto;html=1;" edge="1" parent="1" source="W0vwcR1TM-mznyV8Gwxy-12" target="W0vwcR1TM-mznyV8Gwxy-16">
          <mxGeometry relative="1" as="geometry" />
        </mxCell>
        <mxCell id="W0vwcR1TM-mznyV8Gwxy-12" value="Kiểm tra xem loại thẻ có tồn tại config không?" style="rhombus;whiteSpace=wrap;html=1;" vertex="1" parent="1">
          <mxGeometry x="195" y="350" width="210" height="80" as="geometry" />
        </mxCell>
        <mxCell id="W0vwcR1TM-mznyV8Gwxy-20" style="edgeStyle=orthogonalEdgeStyle;rounded=0;orthogonalLoop=1;jettySize=auto;html=1;" edge="1" parent="1" source="W0vwcR1TM-mznyV8Gwxy-16" target="W0vwcR1TM-mznyV8Gwxy-18">
          <mxGeometry relative="1" as="geometry" />
        </mxCell>
        <mxCell id="W0vwcR1TM-mznyV8Gwxy-16" value="Thực hiện mapping promotion + số tiền phí cho loại thẻ" style="rounded=1;whiteSpace=wrap;html=1;" vertex="1" parent="1">
          <mxGeometry x="200" y="520" width="200" height="60" as="geometry" />
        </mxCell>
        <mxCell id="W0vwcR1TM-mznyV8Gwxy-21" style="edgeStyle=orthogonalEdgeStyle;rounded=0;orthogonalLoop=1;jettySize=auto;html=1;" edge="1" parent="1" source="W0vwcR1TM-mznyV8Gwxy-18" target="W0vwcR1TM-mznyV8Gwxy-1">
          <mxGeometry relative="1" as="geometry" />
        </mxCell>
        <mxCell id="W0vwcR1TM-mznyV8Gwxy-18" value="Lưu thông tin số tiền phí vào bảng&amp;nbsp;SmsCardFee" style="rounded=1;whiteSpace=wrap;html=1;" vertex="1" parent="1">
          <mxGeometry x="200" y="670" width="200" height="60" as="geometry" />
        </mxCell>
      </root>
    </mxGraphModel>
  </diagram>
</mxfile>
